HIERARCHY
ROOT Hips
{
	OFFSET -32.860001 56.121803 44.745396
	CHANNELS 6 Xposition Yposition Zposition Zrotation Xrotation Yrotation
	JOINT Chest
	{
		OFFSET -0.637402 0.831600 5.390099
		CHANNELS 6 Xposition Yposition Zposition Zrotation Xrotation Yrotation
		JOINT Chest2
		{
			OFFSET 0.000000 0.000000 4.429901
			CHANNELS 6 Xposition Yposition Zposition Zrotation Xrotation Yrotation
			JOINT Neck
			{
				OFFSET 0.000000 0.000000 10.301395
				CHANNELS 6 Xposition Yposition Zposition Zrotation Xrotation Yrotation
				JOINT Head
				{
					OFFSET 0.000000 0.000000 2.173897
					CHANNELS 6 Xposition Yposition Zposition Zrotation Xrotation Yrotation
					End Site
					{
						OFFSET 0.000000 0.000000 8.298004
					}
				}
			}
			JOINT LeftCollar
			{
				OFFSET 2.142401 -0.572701 5.717800
				CHANNELS 6 Xposition Yposition Zposition Zrotation Xrotation Yrotation
				JOINT LeftShoulder
				{
					OFFSET 5.674000 0.000000 0.000000
					CHANNELS 6 Xposition Yposition Zposition Zrotation Xrotation Yrotation
					JOINT LeftElbow
					{
						OFFSET 0.000000 0.000000 -12.238701
						CHANNELS 6 Xposition Yposition Zposition Zrotation Xrotation Yrotation
						JOINT LeftWrist
						{
							OFFSET 0.000000 0.000000 -10.253700
							CHANNELS 6 Xposition Yposition Zposition Zrotation Xrotation Yrotation
							End Site
							{
								OFFSET 0.000000 0.000000 -2.173901
							}
						}
					}
				}
			}
			JOINT RightCollar
			{
				OFFSET -2.882599 -1.580101 6.695801
				CHANNELS 6 Xposition Yposition Zposition Zrotation Xrotation Yrotation
				JOINT RightShoulder
				{
					OFFSET -4.235600 0.000000 0.000000
					CHANNELS 6 Xposition Yposition Zposition Zrotation Xrotation Yrotation
					JOINT RightElbow
					{
						OFFSET 0.000000 0.000000 -10.709900
						CHANNELS 6 Xposition Yposition Zposition Zrotation Xrotation Yrotation
						JOINT RightWrist
						{
							OFFSET 0.000000 0.000000 -11.716801
							CHANNELS 6 Xposition Yposition Zposition Zrotation Xrotation Yrotation
							End Site
							{
								OFFSET 0.000000 0.000000 -2.173901
							}
						}
					}
				}
			}
		}
	}
	JOINT LeftHip
	{
		OFFSET 2.279499 0.210400 -2.475502
		CHANNELS 6 Xposition Yposition Zposition Zrotation Xrotation Yrotation
		JOINT LeftKnee
		{
			OFFSET 0.000000 -0.000004 -20.742800
			CHANNELS 6 Xposition Yposition Zposition Zrotation Xrotation Yrotation
			JOINT LeftAnkle
			{
				OFFSET 0.000000 0.000000 -16.666000
				CHANNELS 6 Xposition Yposition Zposition Zrotation Xrotation Yrotation
				End Site
				{
					OFFSET 0.000000 -8.310898 0.000000
				}
			}
		}
	}
	JOINT RightHip
	{
		OFFSET -1.961899 0.232300 -2.727402
		CHANNELS 6 Xposition Yposition Zposition Zrotation Xrotation Yrotation
		JOINT RightKnee
		{
			OFFSET 0.000000 -0.000004 -20.526800
			CHANNELS 6 Xposition Yposition Zposition Zrotation Xrotation Yrotation
			JOINT RightAnkle
			{
				OFFSET 0.000000 0.000000 -16.867300
				CHANNELS 6 Xposition Yposition Zposition Zrotation Xrotation Yrotation
				End Site
				{
					OFFSET 0.000000 -7.186401 0.000000
				}
			}
		}
	}
}
MOTION
Frames: 4
Frame Time: 0.041667
68.306618 60.207207 39.951195 53.881365 25.532939 -0.039924 -0.637401 0.831606 5.390089 -7.796532 18.541600 4.844734 -0.000003 -0.000008 4.429905 1.356655 -4.998858 -0.396953 0.000007 0.000003 10.301378 359.570555 18.722242 0.300180 -0.000002 0.000005 2.173878 -360.359770 4.019585 0.499961 2.142414 -0.572698 5.717793 -4.114120 -0.032058 -1.405615 5.673996 0.000006 -0.000001 172.950430 237.294323 137.744589 -0.000011 -0.000001 -12.238701 -252.741479 -156.769685 -256.229192 0.000008 0.000006 -10.253701 148.146735 12.002324 -1.469020 -2.882590 -1.580101 6.695794 10.415876 9.933081 -10.205518 -4.235594 0.000008 -0.000007 -11.385625 -57.383923 13.344539 0.000010 0.000000 -10.709904 -78.197306 -60.063447 -96.074923 0.000008 -0.000001 -11.716801 -27.728471 -14.955901 -26.919615 2.279504 0.210406 -2.475512 62.575960 -44.919449 52.189110 -0.000006 -0.000007 -20.742804 -138.502754 0.051289 79.061728 -0.000004 0.000007 -16.665998 83.557468 -3.332220 46.461798 -1.961899 0.232306 -2.727407 -444.270638 -49.259160 -67.042145 0.000021 -0.000004 -20.526800 411.018627 55.288776 1.909950 0.000001 0.000003 -16.867296 14.508515 20.321626 2.856319
68.417915 59.660404 40.070290 56.492478 24.374565 -1.229101 -0.637423 0.831605 5.390088 -7.182737 18.374423 3.755140 0.000000 0.000002 4.429901 1.576085 -5.055355 -0.540003 0.000003 -0.000006 10.301404 356.616662 20.169441 1.236471 0.000003 0.000004 2.173896 -360.411652 4.211139 0.237175 2.142394 -0.572694 5.717805 -4.293790 0.138675 -2.827660 5.673990 -0.000001 -0.000010 169.663333 241.751376 133.980280 -0.000013 0.000007 -12.238705 -252.627770 -159.328082 -256.641735 0.000012 0.000000 -10.253699 152.474370 11.292016 -0.923337 -2.882601 -1.580101 6.695800 10.072322 9.989645 -9.265144 -4.235609 -0.000006 -0.000010 -14.805885 -62.638572 10.281571 0.000003 -0.000015 -10.709908 -82.699254 -60.544204 -100.399027 0.000002 0.000002 -11.716798 -26.249605 -15.033397 -20.877892 2.279488 0.210399 -2.475502 59.705996 -43.810251 49.798090 -0.000009 0.000006 -20.742802 -138.755826 -0.049491 78.306282 -0.000006 0.000011 -16.666002 83.169246 -3.407643 46.129899 -1.961914 0.232299 -2.727407 -443.580325 -49.503954 -64.103825 0.000006 -0.000009 -20.526804 405.739574 51.084528 6.234847 -0.000004 -0.000004 -16.867300 21.592880 21.388466 1.102079
68.543106 59.069504 40.224087 59.326518 22.701609 -2.373631 -0.637407 0.831597 5.390100 -6.920570 18.611113 2.847594 -0.000004 -0.000001 4.429900 1.843469 -5.103621 -0.531066 -0.000000 0.000003 10.301399 353.671184 21.641796 1.972872 -0.000008 0.000004 2.173893 -360.375971 4.391804 -0.031530 2.142398 -0.572693 5.717796 -4.273577 0.190820 -4.675895 5.674008 0.000003 -0.000003 163.839941 245.532979 127.218352 -0.000008 0.000018 -12.238704 -250.848478 -157.358857 -255.400717 0.000007 -0.000002 -10.253706 154.040655 10.677233 -0.310824 -2.882598 -1.580099 6.695790 9.444208 9.827275 -8.214532 -4.235603 -0.000002 -0.000014 -18.274318 -67.674013 7.931902 -0.000008 -0.000001 -10.709911 -85.776357 -60.216109 -102.806819 0.000001 0.000002 -11.716805 -21.559854 -15.507717 -14.736934 2.279494 0.210394 -2.475500 55.989007 -42.518406 46.523431 -0.000001 0.000001 -20.742800 -138.691608 0.242776 77.317202 -0.000007 0.000011 -16.665997 82.455813 -3.455113 45.425915 -1.961905 0.232294 -2.727400 -442.586778 -49.357163 -60.299485 0.000012 -0.000003 -20.526798 402.254948 47.557630 8.683248 0.000006 -0.000008 -16.867296 27.692806 22.385141 -0.864524
68.681732 58.430199 40.419392 62.153861 21.675479 -3.485266 -0.637411 0.831601 5.390093 -6.754152 18.126332 2.056138 -0.000005 -0.000002 4.429900 2.204692 -5.206954 -0.527265 0.000009 -0.000003 10.301402 350.711199 23.165693 2.711782 0.000004 0.000007 2.173907 -360.387446 4.582277 -0.323621 2.142402 -0.572701 5.717803 -4.124725 0.172570 -6.568082 5.674005 0.000006 -0.000007 154.449674 248.006190 116.442458 0.000000 0.000002 -12.238696 -248.099354 -154.188734 -252.864422 0.000011 0.000000 -10.253690 155.262713 10.965135 -0.605903 -2.882595 -1.580097 6.695799 8.522182 9.626574 -7.161134 -4.235603 -0.000004 0.000002 -20.752772 -72.683752 7.463740 0.000002 -0.000002 -10.709892 -86.686418 -58.525337 -102.766828 -0.000006 0.000003 -11.716790 -12.346825 -15.773915 -7.823457 2.279495 0.210410 -2.475505 52.633472 -41.529702 43.720963 -0.000000 -0.000033 -20.742798 -138.298080 0.908293 76.003183 -0.000004 0.000009 -16.665995 81.397086 -3.465501 44.419637 -1.961901 0.232298 -2.727406 -442.363103 -49.094075 -57.406879 0.000010 -0.000011 -20.526806 399.594261 44.746953 10.296276 -0.000004 -0.000005 -16.867298 33.311034 23.436503 -3.182293
